<?xml version="1.0" encoding="utf-8"?>
<!-- Generator: Adobe Illustrator 19.2.1, SVG Export Plug-In . SVG Version: 6.00 Build 0)  -->
<svg version="1.1"
	 id="Layer_1" inkscape:version="0.48.4 r9939" sodipodi:docname="IFTTT_Logo.svg" xmlns:cc="http://creativecommons.org/ns#" xmlns:dc="http://purl.org/dc/elements/1.1/" xmlns:inkscape="http://www.inkscape.org/namespaces/inkscape" xmlns:rdf="http://www.w3.org/1999/02/22-rdf-syntax-ns#" xmlns:sodipodi="http://sodipodi.sourceforge.net/DTD/sodipodi-0.dtd" xmlns:svg="http://www.w3.org/2000/svg"
	 xmlns="http://www.w3.org/2000/svg" xmlns:xlink="http://www.w3.org/1999/xlink" x="0px" y="0px" viewBox="0 0 83 22"
	 style="enable-background:new 0 0 83 22;" xml:space="preserve">
<style type="text/css">
	.st0{fill:#CCB285;}
</style>
<sodipodi:namedview  bordercolor="#666666" borderopacity="1" fit-margin-bottom="0" fit-margin-left="0" fit-margin-right="0" fit-margin-top="0" gridtolerance="10" guidetolerance="10" id="namedview61" inkscape:current-layer="Layer_1" inkscape:cx="9.3801495" inkscape:cy="-16.712669" inkscape:pageopacity="0" inkscape:pageshadow="2" inkscape:window-height="703" inkscape:window-maximized="1" inkscape:window-width="1366" inkscape:window-x="0" inkscape:window-y="28" inkscape:zoom="1.4142136" objecttolerance="10" pagecolor="#ffffff" showgrid="false">
	</sodipodi:namedview>
<rect id="rect7" class="st0" width="7" height="22"/>
<polygon class="st0" points="40,0 33,0 28,0 28,7 33,7 33,22 40,22 40,7 45,7 45,0 "/>
<polygon class="st0" points="59,0 52,0 47,0 47,7 52,7 52,22 59,22 59,7 64,7 64,0 "/>
<polygon class="st0" points="78,0 71,0 66,0 66,7 71,7 71,22 78,22 78,7 83,7 83,0 "/>
<polygon class="st0" points="26,7 26,0 17,0 10,0 10,7 10,9 10,16 10,22 17,22 17,16 23,16 23,9 17,9 17,7 "/>
</svg>
