<?xml version="1.0" encoding="utf-8"?><svg version="1.2" baseProfile="tiny" id="Layer_1" xmlns="http://www.w3.org/2000/svg" xmlns:xlink="http://www.w3.org/1999/xlink" x="0px" y="0px" viewBox="0 0 344.3 74.3" xml:space="preserve"><g><g><g><linearGradient id="SVGID_1_" gradientUnits="userSpaceOnUse" x1="37.3433" y1="2.431" x2="37.3433" y2="73.614"><stop offset="0" style="stop-color:#F05A28"/><stop offset="1" style="stop-color:#EB008B"/></linearGradient><circle fill="url(#SVGID_1_)" cx="37.3" cy="37.3" r="36"/></g><g><path fill="#FFFFFF" d="M31.2,24l23.1,13.3L31.2,50.6L31.2,24 M28.1,18.6l0,37.4l32.4-18.7L28.1,18.6L28.1,18.6z"/><path fill="#FFFFFF" d="M23.7,28l16,9.3l-16,9.3V28 M20.6,22.7v29.2L46,37.3L20.6,22.7L20.6,22.7z"/></g></g><g><g><path fill="#231F20" d="M100.3,37.7c2.6,0,4.2-1.4,4.2-3.5v-0.1c0-2.3-1.6-3.5-4.2-3.5h-4v7H100.3z M92.9,27.5h7.7c4.5,0,7.4,2.6,7.4,6.5v0.1c0,4.4-3.5,6.7-7.8,6.7h-3.9V47h-3.4V27.5z"/></g><polygon fill="#231F20" points="116.5,27.5 119.9,27.5 119.9,43.9 130.2,43.9 130.2,47 116.5,47 "/><g><path fill="#231F20" d="M137.9,38.8V27.5h3.4v11.1c0,3.6,1.9,5.6,4.9,5.6c3,0,4.9-1.8,4.9-5.4V27.5h3.4v11.1c0,5.8-3.3,8.8-8.4,8.8C141.1,47.4,137.9,44.4,137.9,38.8"/><path fill="#231F20" d="M172.7,37.2c2.5,0,4-1.3,4-3.3v-0.1c0-2.1-1.5-3.2-4-3.2h-5v6.6H172.7z M164.3,27.5h8.7c2.5,0,4.4,0.7,5.6,2c1,1.1,1.6,2.5,1.6,4.2v0.1c0,3.2-1.9,5.1-4.7,5.9l5.3,7.4h-4l-4.8-6.8h-4.3V47h-3.4V27.5z"/></g><path fill="#231F20" d="M201.2,39.3l-3.4-7.8l-3.3,7.8H201.2z M196.3,27.4h3.2l8.6,19.6h-3.6l-2-4.7h-9.2l-2,4.7h-3.5L196.3,27.4z"/><polygon fill="#231F20" points="216.4,27.5 219.9,27.5 219.9,43.9 230.1,43.9 230.1,47 216.4,47 "/><g><path fill="#231F20" d="M237.4,44.2l2.1-2.5c1.9,1.6,3.7,2.5,6.2,2.5c2.1,0,3.5-1,3.5-2.5v-0.1c0-1.4-0.8-2.1-4.4-3c-4.2-1-6.5-2.2-6.5-5.8v-0.1c0-3.3,2.8-5.7,6.7-5.7c2.8,0,5.1,0.9,7.1,2.5l-1.8,2.6c-1.8-1.3-3.5-2-5.3-2c-2,0-3.2,1-3.2,2.3v0.1c0,1.5,0.9,2.2,4.6,3.1c4.1,1,6.3,2.5,6.3,5.7v0.1c0,3.7-2.9,5.8-7,5.8C242.5,47.3,239.7,46.3,237.4,44.2"/></g><rect x="261.7" y="27.5" fill="#231F20" width="3.4" height="19.5"/><g><path fill="#231F20" d="M274.5,37.4L274.5,37.4c0-5.5,4.2-10.1,10.1-10.1c3.4,0,5.5,0.9,7.5,2.6l-2.2,2.6c-1.5-1.3-3-2.1-5.5-2.1c-3.6,0-6.3,3.2-6.3,6.9v0.1c0,4,2.6,7,6.6,7c1.8,0,3.5-0.6,4.7-1.5v-3.7h-5v-3h8.3v8.2c-1.9,1.6-4.7,3-8.1,3C278.5,47.4,274.5,43,274.5,37.4"/></g><polygon fill="#231F20" points="302.2,27.5 305.6,27.5 305.6,35.7 315,35.7 315,27.5 318.4,27.5 318.4,47 315,47 315,38.8 305.6,38.8 305.6,47 302.2,47 "/><polygon fill="#231F20" points="327,27.5 327,30.7 333.2,30.7 333.2,47 336.6,47 336.6,30.7 342.8,30.7 342.8,27.5 "/></g></g></svg>