<?xml version="1.0" encoding="utf-8"?><svg width="332" height="332" viewBox="0 0 332 332" xmlns="http://www.w3.org/2000/svg" xmlns:xlink="http://www.w3.org/1999/xlink"><svg width="16" height="16" viewBox="-297 389 16 16" enable-background="new -297 389 16 16" id="arrow"><path fill="#CCB285" d="M-285.8 394.4l-1.6 1.4 2.2 2.2h-9.6v-8h-2.2v10.3h11.6l-2 2.1 1.6 1.6 4.8-4.8z"/></svg><svg width="16" height="16" viewBox="-297 389 16 16" enable-background="new -297 389 16 16" id="arrowleft" x="16" y="16"><path fill="#CEC9C4" d="M-290.6 390.6l1.6 1.5-3.8 3.8h11.8v2.2h-11.6l3.6 3.7-1.6 1.6-6.4-6.4z"/></svg><svg width="16" height="16" viewBox="-297 389 16 16" enable-background="new -297 389 16 16" id="arrowright" x="32" y="32"><path fill="#CEC9C4" d="M-287.4 390.6l-1.6 1.5 3.8 3.8H-297v2.2h11.6l-3.6 3.7 1.6 1.6 6.4-6.4z"/></svg><svg width="16" height="16" viewBox="-297 389 16 16" enable-background="new -297 389 16 16" id="chart" x="48" y="48"><style type="text/css">.st0{fill:#d8d2cc}</style><path class="st0" d="M-297 390v14h16v-2h-14v-12h-2zm10 0v10h4v-10h-4zm-6 4v6h4v-6h-4z"/></svg><svg width="12" height="12" viewBox="-299 391 12 12" enable-background="new -299 391 12 12" id="close" x="64" y="64"><path d="M-296.82 391.05l-2.18 2.18 1.09 1.092 2.678 2.777-2.678 2.676-1.09.992 2.18 2.18 1.092-1.09 2.777-2.777 2.676 2.778 1.09 1.09 2.183-2.18-1.09-1.092-2.78-2.678 2.778-2.777 1.09-1.09-2.182-1.983-1.09 1.09-2.68 2.678-2.776-2.678c0-.1-1.09-1.19-1.09-1.19z" fill="#FCFBF7"/></svg><svg width="16" height="16" viewBox="-297 389 16 16" enable-background="new -297 389 16 16" id="facebook" x="76" y="76"><path d="M-292.9 394.3h1.7v-1.6c0-.7 0-1.8.5-2.5.6-.7 1.3-1.2 2.6-1.2 2.1 0 3 .3 3 .3l-.4 2.5s-.7-.2-1.3-.2-1.2.2-1.2.9v1.9h2.6l-.2 2.4h-2.5v8.2h-3.1v-8.3h-1.7v-2.4z" fill="#FCFBF7"/></svg><svg width="16" height="16" viewBox="-297 389 16 16" enable-background="new -297 389 16 16" id="facebook-b" x="92" y="92"><path d="M-292.9 394.3h1.7v-1.6c0-.7 0-1.8.5-2.5.6-.7 1.3-1.2 2.6-1.2 2.1 0 3 .3 3 .3l-.4 2.5s-.7-.2-1.3-.2-1.2.2-1.2.9v1.9h2.6l-.2 2.4h-2.5v8.2h-3.1v-8.3h-1.7v-2.4z" fill="#847B79"/></svg><svg width="16" height="16" viewBox="-297 389 16 16" enable-background="new -297 389 16 16" id="feed" x="108" y="108"><circle cx="-294.8" cy="402.8" r="2.2" fill="#FCFBF7"/><path d="M-286.4 405h-3.1c0-4.1-3.4-7.5-7.5-7.5v-3.1c5.9 0 10.6 4.7 10.6 10.6zm2.2 0c0-7.1-5.7-12.8-12.8-12.8V389c8.8 0 16 7.2 16 16h-3.2z" fill="#FCFBF7"/></svg><svg width="16" height="16" viewBox="-297 389 16 16" enable-background="new -297 389 16 16" id="feed-b" x="124" y="124"><circle cx="-294.8" cy="402.8" r="2.2" fill="#847B79"/><path d="M-286.4 405h-3.1c0-4.1-3.4-7.5-7.5-7.5v-3.1c5.9 0 10.6 4.7 10.6 10.6zm2.2 0c0-7.1-5.7-12.8-12.8-12.8V389c8.8 0 16 7.2 16 16h-3.2z" fill="#847B79"/></svg><svg width="16" height="16" viewBox="-297 389 16 16" enable-background="new -297 389 16 16" id="google" x="140" y="140"><path d="M-286.7 389h-3.8c-1.7 0-2.9.4-3.9 1.2-.8.7-1.3 1.8-1.3 2.8 0 1.6 1.2 3.3 3.5 3.3h.7v.1c-.1.2-.2.4-.2.7 0 .6.3 1 .6 1.4h-.1c-.9.1-2.7.2-3.9 1-1.5.9-1.6 2.2-1.6 2.5 0 1.5 1.4 3 4.5 3 3.6 0 5.5-2 5.5-3.9 0-1.4-.8-2.2-1.8-2.9l-.8-.6c-.2-.2-.5-.4-.5-.9 0-.4.3-.7.6-1 .8-.6 1.8-1.4 1.8-3s-1-2.4-1.5-2.8h1.3l1.1-.7c-.2-.1-.2-.1-.2-.2zm-4.8 15.1c-2.2 0-3.7-1-3.7-2.5 0-1 .6-1.7 1.8-2.1.9-.3 2.2-.3 2.2-.3h.5c1.5 1.1 2.3 1.7 2.3 2.8 0 1.3-1.1 2.1-3.1 2.1zm0-8.4c-1.8 0-2.6-2.4-2.6-3.7 0-.7.1-1.2.5-1.5.3-.4.9-.7 1.5-.7 1.7 0 2.6 2.3 2.6 3.8 0 .2 0 1-.5 1.5-.4.4-1 .6-1.5.6zm10 .8h-2v-2s0-.1-.1-.1h-.8s-.1 0-.1.1v2h-2s-.1 0-.1.1v.9s0 .1.1.1h2v2s0 .1.1.1h.9s.1 0 .1-.1v-2h2s.1 0 .1-.1l-.2-1c.1 0 .1 0 0 0z" fill="#FCFBF7"/></svg><svg width="16" height="16" viewBox="-297 389 16 16" enable-background="new -297 389 16 16" id="google-b" x="156" y="156"><path d="M-286.7 389h-3.8c-1.7 0-2.9.4-3.9 1.2-.8.7-1.3 1.8-1.3 2.8 0 1.6 1.2 3.3 3.5 3.3h.7v.1c-.1.2-.2.4-.2.7 0 .6.3 1 .6 1.4h-.1c-.9.1-2.7.2-3.9 1-1.5.9-1.6 2.2-1.6 2.5 0 1.5 1.4 3 4.5 3 3.6 0 5.5-2 5.5-3.9 0-1.4-.8-2.2-1.8-2.9l-.8-.6c-.2-.2-.5-.4-.5-.9 0-.4.3-.7.6-1 .8-.6 1.8-1.4 1.8-3s-1-2.4-1.5-2.8h1.3l1.1-.7c-.2-.1-.2-.1-.2-.2zm-4.8 15.1c-2.2 0-3.7-1-3.7-2.5 0-1 .6-1.7 1.8-2.1.9-.3 2.2-.3 2.2-.3h.5c1.5 1.1 2.3 1.7 2.3 2.8 0 1.3-1.1 2.1-3.1 2.1zm0-8.4c-1.8 0-2.6-2.4-2.6-3.7 0-.7.1-1.2.5-1.5.3-.4.9-.7 1.5-.7 1.7 0 2.6 2.3 2.6 3.8 0 .2 0 1-.5 1.5-.4.4-1 .6-1.5.6zm10 .8h-2v-2s0-.1-.1-.1h-.8s-.1 0-.1.1v2h-2s-.1 0-.1.1v.9s0 .1.1.1h2v2s0 .1.1.1h.9s.1 0 .1-.1v-2h2s.1 0 .1-.1l-.2-1c.1 0 .1 0 0 0z" fill="#847B79"/></svg><svg width="16" height="16" viewBox="-297 389 16 16" enable-background="new -297 389 16 16" id="instagram" x="172" y="172"><path d="M-284.1 389h-9.8c-1.7 0-3.1 1.4-3.1 3.1v9.9c0 1.6 1.4 3 3.1 3h9.8c1.7 0 3.1-1.4 3.1-3.1v-9.8c0-1.7-1.4-3.1-3.1-3.1zm.9 1.8h.4v2.8h-2.7v-2.7l2.3-.1zm-8.1 4.6c.5-.8 1.4-1.2 2.3-1.2s1.8.5 2.3 1.2c.3.5.5 1 .5 1.6 0 1.6-1.3 2.8-2.8 2.8s-2.8-1.2-2.8-2.8c0-.6.2-1.2.5-1.6zm8.7 6.5c0 .8-.7 1.5-1.5 1.5h-9.8c-.8 0-1.5-.7-1.5-1.5v-6.5h2.4c-.3.5-.4 1-.4 1.6 0 2.4 2 4.4 4.4 4.4s4.4-2 4.4-4.4c0-.6-.1-1.1-.3-1.6h2.4v6.5h-.1z" fill="#FCFBF7"/></svg><svg width="16" height="16" viewBox="-297 389 16 16" enable-background="new -297 389 16 16" id="instagram-b" x="188" y="188"><path d="M-284.1 389h-9.8c-1.7 0-3.1 1.4-3.1 3.1v9.9c0 1.6 1.4 3 3.1 3h9.8c1.7 0 3.1-1.4 3.1-3.1v-9.8c0-1.7-1.4-3.1-3.1-3.1zm.9 1.8h.4v2.8h-2.7v-2.7l2.3-.1zm-8.1 4.6c.5-.8 1.4-1.2 2.3-1.2s1.8.5 2.3 1.2c.3.5.5 1 .5 1.6 0 1.6-1.3 2.8-2.8 2.8s-2.8-1.2-2.8-2.8c0-.6.2-1.2.5-1.6zm8.7 6.5c0 .8-.7 1.5-1.5 1.5h-9.8c-.8 0-1.5-.7-1.5-1.5v-6.5h2.4c-.3.5-.4 1-.4 1.6 0 2.4 2 4.4 4.4 4.4s4.4-2 4.4-4.4c0-.6-.1-1.1-.3-1.6h2.4v6.5h-.1z" fill="#847B79"/></svg><svg width="16" height="16" viewBox="-297 389 16 16" enable-background="new -297 389 16 16" id="link" x="204" y="204"><path d="M-285.2 389.183c-.4 0-.7.1-1.1.2-.5.2-1.1.5-1.5.9-.5.3-.6.9-.3 1.4s.9.6 1.4.3l.3-.3c.2-.2.5-.3.8-.4.7-.2 1.6-.1 2.1.4.8.8.8 2.1 0 2.9l-3 3c-.9.9-1.6 1-2.1.9-.5 0-.8-.3-.8-.3-.5-.3-1.1-.1-1.4.4-.3.5-.1 1.1.4 1.4 0 0 .7.4 1.7.5s2.4-.3 3.6-1.6l3-3c1.6-1.6 1.6-4 0-5.5-.6-.6-1.2-.9-1.9-1.1-.7-.1-1-.1-1.2-.1zm-4.1 4.5c-1 0-2.4.3-3.6 1.5l-3 3c-1.6 1.6-1.6 4 0 5.5 1.1 1.1 2.7 1.4 4 .9.5-.2 1.1-.5 1.5-.9.5-.3.6-.9.3-1.4s-.9-.6-1.4-.3l-.3.3c-.2.2-.5.3-.8.4-.7.2-1.6.1-2.1-.4-.8-.8-.8-2.1 0-2.9l3-3c.8-.8 1.5-.9 2.1-.9s.9.2.9.2c.4.3 1.1.2 1.4-.2s.2-1.1-.2-1.4c-.1-.1-.2-.1-.3-.2.2.2-.4-.2-1.5-.2z" fill="#D9D3CE"/></svg><svg width="16" height="16" viewBox="-297 389 16 16" enable-background="new -297 389 16 16" id="map" x="220" y="220"><path d="M-289 389c-3.3 0-6 2.7-6 6 0 4 6 10 6 10s6-6 6-10c0-3.3-2.7-6-6-6zm0 2c2.2 0 4 1.8 4 4s-1.8 4-4 4-4-1.8-4-4 1.8-4 4-4z" fill="#D9D3CE"/></svg><svg width="16" height="16" viewBox="-297 389 16 16" enable-background="new -297 389 16 16" id="pinterest" x="236" y="236"><path d="M-289 389c-4.4 0-8 3.6-8 8 0 3.4 2.1 6.3 5.1 7.4-.1-.6-.1-1.6 0-2.3.1-.6.9-4 .9-4s-.2-.4-.2-1.1c0-1.1.7-2 1.5-2 .7 0 1 .5 1 1.1 0 .7-.4 1.7-.7 2.7-.2.8.4 1.4 1.2 1.4 1.4 0 2.5-1.5 2.5-3.7 0-1.9-1.4-3.3-3.3-3.3-2.3 0-3.6 1.7-3.6 3.5 0 .7.3 1.4.6 1.8v.4c-.1.3-.2.8-.2.9s-.1.2-.3.1c-1-.5-1.6-1.9-1.6-3.1 0-2.5 1.8-4.8 5.3-4.8 2.8 0 4.9 2 4.9 4.6 0 2.8-1.7 5-4.2 5-.8 0-1.6-.4-1.8-.9 0 0-.4 1.5-.5 1.9-.2.7-.7 1.6-1 2.1.8.2 1.6.3 2.4.3 4.4 0 8-3.6 8-8s-3.6-8-8-8z" fill="#FCFBF7"/></svg><svg width="16" height="16" viewBox="-297 389 16 16" enable-background="new -297 389 16 16" id="pinterest-b" x="252" y="252"><path d="M-289 389c-4.4 0-8 3.6-8 8 0 3.4 2.1 6.3 5.1 7.4-.1-.6-.1-1.6 0-2.3.1-.6.9-4 .9-4s-.2-.4-.2-1.1c0-1.1.7-2 1.5-2 .7 0 1 .5 1 1.1 0 .7-.4 1.7-.7 2.7-.2.8.4 1.4 1.2 1.4 1.4 0 2.5-1.5 2.5-3.7 0-1.9-1.4-3.3-3.3-3.3-2.3 0-3.6 1.7-3.6 3.5 0 .7.3 1.4.6 1.8v.4c-.1.3-.2.8-.2.9s-.1.2-.3.1c-1-.5-1.6-1.9-1.6-3.1 0-2.5 1.8-4.8 5.3-4.8 2.8 0 4.9 2 4.9 4.6 0 2.8-1.7 5-4.2 5-.8 0-1.6-.4-1.8-.9 0 0-.4 1.5-.5 1.9-.2.7-.7 1.6-1 2.1.8.2 1.6.3 2.4.3 4.4 0 8-3.6 8-8s-3.6-8-8-8z" fill="#847B79"/></svg><svg width="16" height="16" viewBox="-297 389 16 16" enable-background="new -297 389 16 16" id="twitter" x="268" y="268"><path d="M-281 392c-.6.3-1.2.4-1.9.5.7-.4 1.2-1 1.4-1.8-.6.4-1.3.6-2.1.8-.6-.6-1.5-1-2.4-1-1.7 0-3.2 1.5-3.2 3.3 0 .3 0 .5.1.7-2.7-.1-5.2-1.4-6.8-3.4-.3.5-.4 1-.4 1.6 0 1.1.6 2.1 1.5 2.7-.5 0-1-.2-1.5-.4 0 1.6 1.1 2.9 2.6 3.2-.3.2-.6.2-.9.2-.2 0-.4 0-.6-.1.4 1.3 1.6 2.3 3.1 2.3-1.1.9-2.5 1.4-4.1 1.4h-.8c1.5.9 3.2 1.5 5 1.5 6 0 9.3-5 9.3-9.3v-.4c.7-.5 1.3-1.1 1.7-1.8z" fill="#FCFBF7"/></svg><svg width="16" height="16" viewBox="-297 389 16 16" enable-background="new -297 389 16 16" id="twitter-b" x="284" y="284"><path d="M-281 392c-.6.3-1.2.4-1.9.5.7-.4 1.2-1 1.4-1.8-.6.4-1.3.6-2.1.8-.6-.6-1.5-1-2.4-1-1.7 0-3.2 1.5-3.2 3.3 0 .3 0 .5.1.7-2.7-.1-5.2-1.4-6.8-3.4-.3.5-.4 1-.4 1.6 0 1.1.6 2.1 1.5 2.7-.5 0-1-.2-1.5-.4 0 1.6 1.1 2.9 2.6 3.2-.3.2-.6.2-.9.2-.2 0-.4 0-.6-.1.4 1.3 1.6 2.3 3.1 2.3-1.1.9-2.5 1.4-4.1 1.4h-.8c1.5.9 3.2 1.5 5 1.5 6 0 9.3-5 9.3-9.3v-.4c.7-.5 1.3-1.1 1.7-1.8z" fill="#847B79"/></svg><svg width="16" height="16" viewBox="-297 389 16 16" enable-background="new -297 389 16 16" id="vk" x="300" y="300"><path d="M-283.05 396.163c.2-.3.4-.5.5-.7 1-1.3 1.4-2.1 1.2-2.4l-.1-.1c0-.1-.1-.1-.3-.1h-3.2s-.1 0-.1.1l-.1.1c-.3.7-.6 1.3-.9 1.9l-.6.9s-.3.4-.4.6l-.3.3-.2.1h-.1c-.1 0-.1-.1-.2-.2 0-.1-.1-.2-.1-.3v-3.2s0-.2-.1-.3c0-.1-.1-.2-.2-.2s-.2-.1-.3-.1c-.3-.1-.7-.1-1.1-.1-1 0-1.7.1-2 .2-.1.1-.2.1-.3.3-.1.1-.1.2 0 .2.3.1.6.2.7.4l.1.1c0 .1.1.2.1.4s.1.4.1.6v1c0 .3-.1.5-.1.7s-.1.3-.1.4c-.1.1-.1.2-.1.2h-.2c-.1 0-.2 0-.3-.1l-.3-.3c-.1-.1-.3-.3-.4-.6-.1-.2-.3-.5-.5-.9l-.1-.2c-.1-.2-.2-.4-.3-.7-.1-.3-.3-.6-.4-.9 0-.1-.1-.2-.2-.3 0 0-.1 0-.1-.1-.1 0-.1 0-.2-.1h-2.3c-.2 0-.4.1-.5.2v.1c0 .1 0 .1.1.2.3.8.7 1.5 1.1 2.3.4.7.7 1.3 1 1.8.3.4.6.9.9 1.3s.5.6.6.8l.2.2.2.2c.1.1.3.3.6.5s.5.4.9.5c.3.2.7.3 1.1.4.4.1.8.2 1.2.1h1c.2 0 .3-.1.4-.2 0 0 0-.1.1-.2v-.2c0-.2 0-.5.1-.6 0-.2.1-.3.1-.4.1-.1.1-.2.2-.2l.1-.1h.1c.1 0 .3 0 .5.1s.3.3.5.5.3.4.6.6c.2.2.4.4.6.5l.2.1c.1.1.3.1.4.2.2.1.3.1.5 0h2.1c.2 0 .4 0 .5-.1.1-.1.2-.1.2-.2v-.3c0-.1 0-.2-.1-.2 0 0 0-.1-.1-.1-.3-.5-.8-1.1-1.6-1.8-.4-.3-.6-.6-.7-.7-.2-.2-.2-.4-.1-.7-.2-.3.1-.7.5-1.2z" fill="#FCFBF7"/></svg><svg width="16" height="16" viewBox="-297 389 16 16" enable-background="new -297 389 16 16" id="vk-b" x="316" y="316"><path d="M-283.05 396.163c.2-.3.4-.5.5-.7 1-1.3 1.4-2.1 1.2-2.4l-.1-.1c0-.1-.1-.1-.3-.1h-3.2s-.1 0-.1.1l-.1.1c-.3.7-.6 1.3-.9 1.9l-.6.9s-.3.4-.4.6l-.3.3-.2.1h-.1c-.1 0-.1-.1-.2-.2 0-.1-.1-.2-.1-.3v-3.2s0-.2-.1-.3c0-.1-.1-.2-.2-.2s-.2-.1-.3-.1c-.3-.1-.7-.1-1.1-.1-1 0-1.7.1-2 .2-.1.1-.2.1-.3.3-.1.1-.1.2 0 .2.3.1.6.2.7.4l.1.1c0 .1.1.2.1.4s.1.4.1.6v1c0 .3-.1.5-.1.7s-.1.3-.1.4c-.1.1-.1.2-.1.2h-.2c-.1 0-.2 0-.3-.1l-.3-.3c-.1-.1-.3-.3-.4-.6-.1-.2-.3-.5-.5-.9l-.1-.2c-.1-.2-.2-.4-.3-.7-.1-.3-.3-.6-.4-.9 0-.1-.1-.2-.2-.3 0 0-.1 0-.1-.1-.1 0-.1 0-.2-.1h-2.3c-.2 0-.4.1-.5.2v.1c0 .1 0 .1.1.2.3.8.7 1.5 1.1 2.3.4.7.7 1.3 1 1.8.3.4.6.9.9 1.3s.5.6.6.8l.2.2.2.2c.1.1.3.3.6.5s.5.4.9.5c.3.2.7.3 1.1.4.4.1.8.2 1.2.1h1c.2 0 .3-.1.4-.2 0 0 0-.1.1-.2v-.2c0-.2 0-.5.1-.6 0-.2.1-.3.1-.4.1-.1.1-.2.2-.2l.1-.1h.1c.1 0 .3 0 .5.1s.3.3.5.5.3.4.6.6c.2.2.4.4.6.5l.2.1c.1.1.3.1.4.2.2.1.3.1.5 0h2.1c.2 0 .4 0 .5-.1.1-.1.2-.1.2-.2v-.3c0-.1 0-.2-.1-.2 0 0 0-.1-.1-.1-.3-.5-.8-1.1-1.6-1.8-.4-.3-.6-.6-.7-.7-.2-.2-.2-.4-.1-.7-.2-.3.1-.7.5-1.2z" fill="#847B79"/></svg></svg>